<svg id="Capa_1" data-name="Capa 1" xmlns="http://www.w3.org/2000/svg" viewBox="0 0 196.6 37.54"><defs><style>.cls-1{fill:#cec7bb;}</style></defs><polygon class="cls-1" points="12.31 0.32 12.31 12.73 12.27 12.73 1.88 0.32 0 0.32 0 15.36 1.88 15.36 1.88 3.11 1.92 3.11 12.31 15.36 14.19 15.36 14.19 0.32 12.31 0.32"/><path class="cls-1" d="M348.73,281.55l-3,6h5.92Zm8.45,12.89h-2.1l-2.61-5.15h-7.69l-2.52,5.15h-2.1l7.63-15h1.88Z" transform="translate(-322.43 -279.08)"/><path class="cls-1" d="M368.12,285.62a11.63,11.63,0,0,1,2.2.21,5.84,5.84,0,0,1,1.93.71,4,4,0,0,1,1.37,1.34,3.88,3.88,0,0,1,.52,2.09,3.55,3.55,0,0,1-.64,2.12,5.11,5.11,0,0,1-1.71,1.5,8.68,8.68,0,0,1-2.44.88,14.08,14.08,0,0,1-2.86.29,12,12,0,0,1-3.18-.37,10.83,10.83,0,0,1-2.3-.89,8.56,8.56,0,0,1-1.57-1.07q-.62-.54-1-.9l1.35-1.24c.24.2.53.45.87.76a6.35,6.35,0,0,0,1.31.89,8.86,8.86,0,0,0,1.89.75,10.17,10.17,0,0,0,2.66.31,11.67,11.67,0,0,0,2.41-.23,6.86,6.86,0,0,0,1.8-.64,3.17,3.17,0,0,0,1.11-.95,2.2,2.2,0,0,0,0-2.41,2.82,2.82,0,0,0-.88-.8,4,4,0,0,0-1.17-.45,6,6,0,0,0-1.24-.14h-3.38a11.72,11.72,0,0,1-2.18-.19,5.52,5.52,0,0,1-1.78-.64,3.51,3.51,0,0,1-1.2-1.16,3.38,3.38,0,0,1-.44-1.78,3.59,3.59,0,0,1,.4-1.58,4.21,4.21,0,0,1,1.23-1.47,6.45,6.45,0,0,1,2.15-1.07,10.7,10.7,0,0,1,3.15-.41,10.53,10.53,0,0,1,2.48.27A12,12,0,0,1,371,280a10.11,10.11,0,0,1,1.41.73l.88.57-1.18,1.39-.95-.58a7.65,7.65,0,0,0-1.18-.6,8.14,8.14,0,0,0-1.51-.47,9.32,9.32,0,0,0-1.93-.18,8.08,8.08,0,0,0-2.3.28,5.34,5.34,0,0,0-1.55.67,2.66,2.66,0,0,0-.88.89,2,2,0,0,0-.28.93,1.46,1.46,0,0,0,.45,1.16,2.8,2.8,0,0,0,1.15.6,6.94,6.94,0,0,0,1.5.22l1.54,0Z" transform="translate(-322.43 -279.08)"/><path class="cls-1" d="M385.92,285.62a11.63,11.63,0,0,1,2.2.21,5.76,5.76,0,0,1,1.93.71A3.76,3.76,0,0,1,392,290a3.55,3.55,0,0,1-.65,2.12,5,5,0,0,1-1.71,1.5,8.68,8.68,0,0,1-2.44.88,14.08,14.08,0,0,1-2.86.29,12,12,0,0,1-3.18-.37,10.83,10.83,0,0,1-2.3-.89,8.92,8.92,0,0,1-1.57-1.07q-.62-.54-1-.9l1.35-1.24c.24.2.53.45.87.76a6.63,6.63,0,0,0,1.31.89,8.86,8.86,0,0,0,1.89.75,10.17,10.17,0,0,0,2.66.31,11.67,11.67,0,0,0,2.41-.23,6.73,6.73,0,0,0,1.8-.64,3.17,3.17,0,0,0,1.11-.95,2.2,2.2,0,0,0,0-2.41,2.9,2.9,0,0,0-.87-.8,4.19,4.19,0,0,0-1.18-.45,6,6,0,0,0-1.24-.14h-3.38a11.61,11.61,0,0,1-2.17-.19,5.49,5.49,0,0,1-1.79-.64,3.6,3.6,0,0,1-1.2-1.16,3.38,3.38,0,0,1-.43-1.78,3.57,3.57,0,0,1,.39-1.58,4.21,4.21,0,0,1,1.23-1.47,6.55,6.55,0,0,1,2.15-1.07,10.7,10.7,0,0,1,3.15-.41,10.53,10.53,0,0,1,2.48.27,12,12,0,0,1,1.94.63,10.11,10.11,0,0,1,1.41.73l.88.57-1.18,1.39-1-.58a7.22,7.22,0,0,0-1.18-.6,8.14,8.14,0,0,0-1.51-.47,9.32,9.32,0,0,0-1.93-.18,8.08,8.08,0,0,0-2.3.28,5.47,5.47,0,0,0-1.55.67,2.66,2.66,0,0,0-.88.89,2,2,0,0,0-.27.93,1.46,1.46,0,0,0,.45,1.16,2.76,2.76,0,0,0,1.14.6,7,7,0,0,0,1.51.22l1.53,0Z" transform="translate(-322.43 -279.08)"/><path class="cls-1" d="M402.14,281.55l-3,6H405Zm8.44,12.89h-2.09l-2.61-5.15h-7.69l-2.53,5.15h-2.09l7.63-15h1.88Z" transform="translate(-322.43 -279.08)"/><path class="cls-1" d="M428.34,288.6a7.44,7.44,0,0,1-.42,2.59,4.85,4.85,0,0,1-1.28,1.94,5.9,5.9,0,0,1-2.2,1.21,10.66,10.66,0,0,1-3.18.42,10.94,10.94,0,0,1-3.24-.42,5.63,5.63,0,0,1-2.19-1.21,4.66,4.66,0,0,1-1.24-1.94,7.7,7.7,0,0,1-.4-2.59v-9.2h1.88v9.2A4,4,0,0,0,417.4,292a7.9,7.9,0,0,0,7.73,0,4,4,0,0,0,1.33-3.39v-9.2h1.88Z" transform="translate(-322.43 -279.08)"/><path class="cls-1" d="M450,285.62a11.63,11.63,0,0,1,2.2.21,5.84,5.84,0,0,1,1.93.71,4,4,0,0,1,1.37,1.34A3.88,3.88,0,0,1,456,290a3.55,3.55,0,0,1-.64,2.12,5.11,5.11,0,0,1-1.71,1.5,8.68,8.68,0,0,1-2.44.88,14.08,14.08,0,0,1-2.86.29,12,12,0,0,1-3.18-.37,10.62,10.62,0,0,1-2.3-.89,8.56,8.56,0,0,1-1.57-1.07q-.61-.54-1-.9l1.35-1.24c.24.2.53.45.87.76a6.35,6.35,0,0,0,1.31.89,8.86,8.86,0,0,0,1.89.75,10.17,10.17,0,0,0,2.66.31,11.67,11.67,0,0,0,2.41-.23,6.86,6.86,0,0,0,1.8-.64,3.17,3.17,0,0,0,1.11-.95,2.2,2.2,0,0,0,0-2.41,2.82,2.82,0,0,0-.88-.8,4,4,0,0,0-1.17-.45,6,6,0,0,0-1.24-.14h-3.38a11.72,11.72,0,0,1-2.18-.19,5.52,5.52,0,0,1-1.78-.64,3.51,3.51,0,0,1-1.2-1.16,3.38,3.38,0,0,1-.44-1.78,3.59,3.59,0,0,1,.4-1.58,4.21,4.21,0,0,1,1.23-1.47,6.45,6.45,0,0,1,2.15-1.07,10.7,10.7,0,0,1,3.15-.41,10.53,10.53,0,0,1,2.48.27,12,12,0,0,1,1.94.63,10.11,10.11,0,0,1,1.41.73l.88.57L454,282.67l-.95-.58a7.65,7.65,0,0,0-1.18-.6,8.14,8.14,0,0,0-1.51-.47,9.32,9.32,0,0,0-1.93-.18,8.08,8.08,0,0,0-2.3.28,5.34,5.34,0,0,0-1.55.67,2.66,2.66,0,0,0-.88.89,2,2,0,0,0-.28.93,1.46,1.46,0,0,0,.45,1.16,2.8,2.8,0,0,0,1.15.6,6.94,6.94,0,0,0,1.5.22l1.54,0Z" transform="translate(-322.43 -279.08)"/><path class="cls-1" d="M474.63,288.6a7.44,7.44,0,0,1-.42,2.59,5,5,0,0,1-1.28,1.94,5.9,5.9,0,0,1-2.2,1.21,10.66,10.66,0,0,1-3.18.42,11,11,0,0,1-3.25-.42,5.77,5.77,0,0,1-2.19-1.21,4.87,4.87,0,0,1-1.24-1.94,8,8,0,0,1-.39-2.59v-9.2h1.88v9.2a4,4,0,0,0,1.32,3.39,7.92,7.92,0,0,0,7.74,0,4,4,0,0,0,1.33-3.39v-9.2h1.88Z" transform="translate(-322.43 -279.08)"/><rect class="cls-1" x="158.63" y="0.32" width="1.88" height="15.04"/><polygon class="cls-1" points="172.78 15.36 170.9 15.36 170.9 2.09 165.04 2.09 165.04 0.32 178.63 0.32 178.63 2.09 172.78 2.09 172.78 15.36"/><polygon class="cls-1" points="182.97 0.32 182.97 15.36 196.6 15.36 196.6 13.6 184.85 13.6 184.85 8.44 190.79 8.44 190.79 6.68 184.85 6.68 184.85 2.08 196.13 2.08 196.13 0.32 182.97 0.32"/><polygon class="cls-1" points="80.91 29.18 80.91 32.61 75.31 32.61 75.31 29.18 74.28 29.18 74.28 37.37 75.31 37.37 75.31 33.57 80.91 33.57 80.91 37.37 81.94 37.37 81.94 29.18 80.91 29.18"/><path class="cls-1" d="M408.3,312.36a3,3,0,0,0,.28,1.28,3.29,3.29,0,0,0,.76,1.05,3.58,3.58,0,0,0,1.16.71,4.2,4.2,0,0,0,2.91,0,3.63,3.63,0,0,0,1.17-.71,3.48,3.48,0,0,0,.77-1.05,3.13,3.13,0,0,0,.27-1.28,3.06,3.06,0,0,0-.27-1.28,3.65,3.65,0,0,0-.77-1.06,3.88,3.88,0,0,0-2.62-1,3.87,3.87,0,0,0-1.46.26,3.77,3.77,0,0,0-1.16.71,3.44,3.44,0,0,0-.76,1.06,2.92,2.92,0,0,0-.28,1.28m-1,0a3.85,3.85,0,0,1,.36-1.64,4.11,4.11,0,0,1,1-1.36,4.77,4.77,0,0,1,1.48-.93,5,5,0,0,1,1.87-.34,4.92,4.92,0,0,1,1.86.34,4.7,4.7,0,0,1,1.49.93,4.11,4.11,0,0,1,1,1.36,3.85,3.85,0,0,1,.36,1.64,3.8,3.8,0,0,1-.36,1.63,4.11,4.11,0,0,1-1,1.36,4.7,4.7,0,0,1-1.49.93,5.26,5.26,0,0,1-3.72,0,4.7,4.7,0,0,1-1.49-.93,4.11,4.11,0,0,1-1-1.36,3.8,3.8,0,0,1-.36-1.63" transform="translate(-322.43 -279.08)"/><polygon class="cls-1" points="96.06 29.18 96.06 30.14 99.25 30.14 99.25 37.37 100.27 37.37 100.27 30.14 103.46 30.14 103.46 29.18 96.06 29.18"/><polygon class="cls-1" points="105.82 29.18 105.82 37.37 113.24 37.37 113.24 36.41 106.84 36.41 106.84 33.6 110.07 33.6 110.07 32.64 106.84 32.64 106.84 30.14 112.98 30.14 112.98 29.18 105.82 29.18"/><polygon class="cls-1" points="115.82 29.18 115.82 37.37 122.32 37.37 122.32 36.41 116.84 36.41 116.84 29.18 115.82 29.18"/></svg>