<svg width="222" height="192" viewBox="0 0 222 192" fill="none" xmlns="http://www.w3.org/2000/svg">
<path fill-rule="evenodd" clip-rule="evenodd" d="M106.787 35.1946C94.9903 15.1173 87.6475 8.32234 71.8179 2.8378C64.923 0.448567 50.5317 -0.625943 44.0925 0.766564C33.4725 3.06433 22.1112 9.42677 14.8319 17.1544C5.44159 27.1225 0.780348 37.7992 0.110165 50.8694C-0.913557 70.8466 5.1627 89.4903 19.796 111.276C32.6479 130.41 57.3777 154.918 82.2783 173.197C91.3373 179.848 108.264 191.248 110.149 191.968C112.747 192.962 144.306 170.451 162.082 154.924C199.547 122.2 219.651 89.9109 221.86 58.9142C223.751 32.3754 206.326 8.23088 180.543 1.66156C167.917 -1.55514 154.871 -0.0856962 142.612 5.93397C131.377 11.4501 125.666 17.3399 116.149 33.2242C113.775 37.1863 111.458 40.5449 111 40.6876C110.542 40.8313 108.645 38.3591 106.787 35.1946Z" fill="#FFFFFF"/>
</svg>
