<svg width="387" height="128" viewBox="0 0 387 128" fill="none" xmlns="http://www.w3.org/2000/svg">
<path d="M35.467 4.21103C38.7494 5.61659 41.5497 7.95013 43.5241 10.9252C45.3738 14.0384 46.3501 17.5927 46.3501 21.214C46.3501 24.8352 45.3738 28.3895 43.5241 31.5027C41.5645 34.491 38.7598 36.8284 35.467 38.2169C31.5656 39.8505 27.3637 40.6435 23.1353 40.5445H12.3701V55.2807H0V1.83866H23.1225C27.3595 1.73988 31.5685 2.54879 35.467 4.21103V4.21103ZM30.9238 28.072C31.8999 27.2321 32.6692 26.1785 33.1721 24.993C33.6751 23.8075 33.898 22.5219 33.8236 21.2363C33.9026 19.9394 33.6822 18.6417 33.1794 17.4436C32.6765 16.2455 31.9048 15.1792 30.9238 14.3271C28.4646 12.5633 25.4669 11.7129 22.4479 11.9228H12.3669V30.4668H22.4479C25.4662 30.6787 28.4639 29.8306 30.9238 28.0688V28.072Z" fill="#fff"/>
<path d="M159.971 1.83868V55.2903H149.813L123.164 22.8382V55.2903H110.947V1.83868H121.179L147.751 34.2907V1.83868H159.971Z" fill="#fff"/>
<path d="M183.448 51.7383C179.149 49.4693 175.556 46.0614 173.064 41.8875C170.587 37.5501 169.284 32.6417 169.284 27.647C169.284 22.6522 170.587 17.7438 173.064 13.4064C175.556 9.23241 179.149 5.82452 183.448 3.5557C188.023 1.14597 193.13 -0.0754624 198.3 0.00358372C202.611 -0.0598762 206.888 0.771814 210.862 2.44621C214.516 4.01349 217.747 6.42395 220.29 9.4802L212.348 16.8115C210.724 14.8261 208.673 13.232 206.349 12.1477C204.024 11.0634 201.485 10.5166 198.92 10.548C195.829 10.4942 192.777 11.2445 190.064 12.7254C187.506 14.1359 185.399 16.2422 183.989 18.8002C182.559 21.5339 181.812 24.5731 181.812 27.6581C181.812 30.7432 182.559 33.7824 183.989 36.5161C185.4 39.0738 187.506 41.1799 190.064 42.5909C192.777 44.0716 195.829 44.8218 198.92 44.7682C201.492 44.7973 204.037 44.2421 206.363 43.1444C208.689 42.0467 210.736 40.4351 212.348 38.4313L220.29 45.7626C217.755 48.8603 214.507 51.297 210.823 52.8637C206.837 54.5353 202.548 55.3669 198.226 55.3064C193.079 55.3742 187.997 54.1472 183.448 51.7383V51.7383Z" fill="#fff"/>
<path d="M365.206 43.8347H340.389L335.654 55.2872H322.986L346.809 1.83564H359.026L382.925 55.2872H369.944L365.206 43.8347ZM361.312 34.4412L352.836 13.9788L344.36 34.4412H361.312Z" fill="#fff"/>
<path d="M87.9912 43.8347H63.1805L58.4453 55.2872H45.7715L69.5943 1.83564H81.811L105.71 55.2872H92.7295L87.9912 43.8347ZM84.0969 34.4412L75.621 13.9788L67.1451 34.4412H84.0969Z" fill="#fff"/>
<path d="M267.223 116.428H242.406L237.671 127.884H224.997L248.82 74.4324H261.036L284.936 127.884H271.955L267.223 116.428ZM263.329 107.035L254.853 86.5723L246.377 107.035H263.329Z" fill="#fff"/>
<path d="M300.266 84.5197H283.161V74.442H329.742V84.5197H312.636V127.893H300.266V84.5197Z" fill="#fff"/>
<path d="M368.835 116.428H344.018L339.283 127.884H326.609L350.431 74.4324H362.648L386.548 127.884H373.567L368.835 116.428ZM364.941 107.035L356.465 86.5723L347.989 107.035H364.941Z" fill="#fff"/>
<path d="M302.968 1.8578V21.6807H240.621V1.8578H228.152V55.2519H240.621V34.15H302.968V55.2519H315.437V1.8578H302.968Z" fill="#fff"/>
<path d="M218.34 86.7415C215.782 82.5851 212.265 79.3878 208.109 77.4695C202.993 75.2314 197.877 73.9525 192.442 73.9525H180.932H168.463V127.347H180.292H192.442C197.877 127.347 202.993 126.387 207.789 124.149C211.945 122.231 215.782 118.714 218.02 114.877C220.578 110.721 221.857 105.605 221.857 100.809C221.857 96.0135 220.578 90.8979 218.34 86.7415ZM204.592 112.959C201.075 116.156 196.598 117.755 191.803 117.435H180.932V84.1837H191.803C196.598 83.864 201.075 85.4626 204.592 88.6599C207.789 91.8571 209.387 96.3333 209.387 100.809C209.387 105.286 207.789 109.762 204.592 112.959Z" fill="#fff"/>
</svg>
