<svg width="121" height="40" viewBox="0 0 121 40" fill="none" xmlns="http://www.w3.org/2000/svg">
<path d="M11.093 1.31711C12.1196 1.75673 12.9954 2.48659 13.613 3.41709C14.1915 4.3908 14.4969 5.50249 14.4969 6.63511C14.4969 7.76772 14.1915 8.87938 13.613 9.8531C13.0001 10.7878 12.1228 11.5188 11.093 11.9531C9.87274 12.464 8.55852 12.7121 7.23599 12.6811H3.86899V17.2901H0V0.57511H7.23199C8.55719 0.544216 9.87364 0.797217 11.093 1.31711ZM9.672 8.7801C9.97729 8.51738 10.2179 8.18784 10.3752 7.81705C10.5325 7.44627 10.6022 7.0442 10.579 6.6421C10.6037 6.23645 10.5347 5.83057 10.3775 5.45585C10.2202 5.08112 9.97881 4.74761 9.672 4.48112C8.90283 3.92945 7.96526 3.66348 7.021 3.7291H3.86798V9.52909H7.021C7.96503 9.59538 8.90261 9.33013 9.672 8.77909V8.7801Z" fill="#9ED6CE"/>
<path d="M50.0339 0.575119V17.2931H46.8569L38.522 7.14311V17.2931H34.7009V0.575119H37.9009L46.212 10.7251V0.575119H50.0339Z" fill="#F0BD9D"/>
<path d="M57.377 16.1821C56.0323 15.4725 54.9086 14.4066 54.129 13.1011C53.3544 11.7445 52.9469 10.2093 52.9469 8.64712C52.9469 7.08492 53.3544 5.54972 54.129 4.19311C54.9086 2.88762 56.0322 1.82173 57.377 1.11212C58.8078 0.358431 60.4051 -0.0235951 62.022 0.00112804C63.3704 -0.0187203 64.7083 0.241407 65.951 0.765105C67.094 1.2553 68.1045 2.00922 68.9 2.96512L66.416 5.25812C65.908 4.63715 65.2667 4.13858 64.5396 3.79944C63.8124 3.4603 63.0182 3.28928 62.216 3.2991C61.2493 3.28228 60.2948 3.51695 59.446 3.9801C58.646 4.42128 57.9872 5.08006 57.546 5.88013C57.0988 6.73515 56.8653 7.6857 56.8653 8.6506C56.8653 9.61551 57.0988 10.5661 57.546 11.4211C57.9873 12.2211 58.6461 12.8798 59.446 13.3211C60.2948 13.7842 61.2493 14.0189 62.216 14.0021C63.0204 14.0112 63.8165 13.8376 64.544 13.4942C65.2716 13.1509 65.9116 12.6468 66.416 12.0201L68.9 14.3131C68.1071 15.282 67.0911 16.0441 65.939 16.5341C64.6922 17.0569 63.3509 17.317 61.999 17.2981C60.3892 17.3193 58.7998 16.9356 57.377 16.1821Z" fill="#F5CDDA"/>
<path d="M114.225 13.7101H106.463L104.982 17.2921H101.02L108.471 0.574112H112.292L119.767 17.2921H115.707L114.225 13.7101ZM113.007 10.7721L110.356 4.37212L107.705 10.7721H113.007Z" fill="#B9D9DE"/>
<path d="M27.521 13.7101H19.761L18.28 17.2921H14.316L21.767 0.574112H25.588L33.063 17.2921H29.003L27.521 13.7101ZM26.303 10.7721L23.652 4.37212L21.001 10.7721H26.303Z" fill="#FCD188"/>
<path d="M83.579 36.4151H75.817L74.3359 39.9981H70.3719L77.823 23.2801H81.6439L89.119 39.9981H85.059L83.579 36.4151ZM82.361 33.4771L79.71 27.0771L77.059 33.4771H82.361Z" fill="#F5CDDA"/>
<path d="M93.914 26.4351H88.564V23.2831H103.133V26.4351H97.783V40.0011H93.914V26.4351Z" fill="#9ED6CE"/>
<path d="M115.36 36.4151H107.598L106.117 39.9981H102.153L109.604 23.2801H113.425L120.9 39.9981H116.84L115.36 36.4151ZM114.142 33.4771L111.491 27.0771L108.84 33.4771H114.142Z" fill="#FCD188"/>
<path d="M94.759 0.581116V6.78112H75.259V0.581116H71.359V17.2811H75.259V10.6811H94.759V17.2811H98.659V0.581116H94.759Z" fill="#ED6E53"/>
<path d="M68.29 27.13C67.49 25.83 66.39 24.83 65.09 24.23C63.49 23.53 61.89 23.13 60.19 23.13H56.59H52.69V39.83H56.39H60.19C61.89 39.83 63.49 39.53 64.99 38.83C66.29 38.23 67.49 37.13 68.19 35.93C68.99 34.63 69.39 33.03 69.39 31.53C69.39 30.03 68.99 28.43 68.29 27.13ZM63.99 35.33C62.89 36.33 61.49 36.83 59.99 36.73H56.59V26.33H59.99C61.49 26.23 62.89 26.73 63.99 27.73C64.99 28.73 65.49 30.13 65.49 31.53C65.49 32.93 64.99 34.33 63.99 35.33Z" fill="#B9D9DE"/>
</svg>
